<?xml version="1.0" encoding="UTF-8"?>
<svg version="1.1" xmlns="http://www.w3.org/2000/svg" width="515" height="515">
<path d="M0 0 C169.95 0 339.9 0 515 0 C515 169.95 515 339.9 515 515 C345.05 515 175.1 515 0 515 C0 345.05 0 175.1 0 0 Z " fill="#01AFD1" transform="translate(0,0)"/>
<path d="M0 0 C168.3 0 336.6 0 510 0 C510 50.82 510 101.64 510 154 C341.7 154 173.4 154 0 154 C0 103.18 0 52.36 0 0 Z " fill="#F4E51D" transform="translate(3,180)"/>
<path d="M0 0 C5.9607407 3.59397601 8.59112619 8.72925735 10.4375 15.3125 C10.82414267 18.40529849 10.83624821 21.4486991 10.80078125 24.5625 C10.80152901 25.84882324 10.80152901 25.84882324 10.80229187 27.16113281 C10.79996544 28.96291436 10.79032222 30.76470004 10.77368164 32.56640625 C10.75006479 35.30498702 10.75313509 38.04259294 10.75976562 40.78125 C10.7541882 42.5416724 10.74707792 44.30209074 10.73828125 46.0625 C10.73964836 47.27534668 10.73964836 47.27534668 10.74104309 48.51269531 C10.64516878 56.30176109 9.5201481 63.10037454 4.4375 69.3125 C-2.90176282 74.85439233 -9.56355338 75.17950815 -18.5625 74.3125 C-23.28589516 72.70438226 -26.34180171 70.10711678 -28.9375 65.875 C-31.88022415 59.42364321 -32.87110909 54.29923441 -32.86328125 47.29296875 C-32.86756638 46.4349617 -32.8718515 45.57695465 -32.87626648 44.69294739 C-32.88198987 42.88344196 -32.88252477 41.07391354 -32.87817383 39.2644043 C-32.87502177 36.51896161 -32.89847014 33.77460599 -32.92382812 31.02929688 C-32.92610235 29.26302218 -32.92680404 27.49674462 -32.92578125 25.73046875 C-32.934991 24.92079147 -32.94420074 24.1111142 -32.95368958 23.27690125 C-32.89898358 16.41945789 -31.41958914 10.40764856 -27.875 4.5 C-20.35251476 -2.61586441 -9.57358646 -4.38416576 0 0 Z " fill="#060600" transform="translate(107.5625,229.6875)"/>
<path d="M0 0 C1.27617188 -0.02187378 1.27617188 -0.02187378 2.578125 -0.04418945 C10.05294549 0.07532076 15.43664542 2.06164542 20.75 7.375 C25.98385549 15.00147514 27.10505709 21.8320087 27 30.875 C26.99548828 31.61556641 26.99097656 32.35613281 26.98632812 33.11914062 C26.97462175 34.93362899 26.95668898 36.74807534 26.9375 38.5625 C22.3175 38.5625 17.6975 38.5625 12.9375 38.5625 C12.88142578 36.59216797 12.88142578 36.59216797 12.82421875 34.58203125 C12.75854343 32.84632636 12.69209663 31.11065053 12.625 29.375 C12.59116211 28.07852539 12.59116211 28.07852539 12.55664062 26.75585938 C12.29984979 20.66291318 11.36649684 16.99149684 6.9375 12.5625 C1.62167254 11.88722502 -3.38571346 11.690571 -8.1875 14.1875 C-11.62531089 18.54206046 -12.3122926 23.0786167 -12.3371582 28.5168457 C-12.34669022 29.66856766 -12.35622223 30.82028961 -12.36604309 32.00691223 C-12.36467598 33.8539399 -12.36467598 33.8539399 -12.36328125 35.73828125 C-12.36756638 37.01801315 -12.3718515 38.29774506 -12.37626648 39.61625671 C-12.3837065 42.32030388 -12.38345435 45.02422045 -12.37817383 47.72827148 C-12.37239243 51.17114292 -12.38928806 54.61347404 -12.4125185 58.05625629 C-12.43091299 61.36695243 -12.42706803 64.67753449 -12.42578125 67.98828125 C-12.434991 69.21356033 -12.44420074 70.43883942 -12.45368958 71.70124817 C-12.41789247 78.3745868 -12.10797096 84.50393986 -9.0625 90.5625 C-5.53746378 93.98385868 -1.92867121 93.88762741 2.75390625 93.86328125 C5.43995349 93.49328905 6.76809104 93.24390285 8.9375 91.5625 C11.76396012 85.71554361 12.44170237 80.49362811 12.625 74.0625 C12.65916016 73.24007812 12.69332031 72.41765625 12.72851562 71.5703125 C12.8099988 69.5681545 12.87544575 67.56535432 12.9375 65.5625 C17.5575 65.5625 22.1775 65.5625 26.9375 65.5625 C27.30124775 76.47493263 27.68836082 89.92582652 19.9375 98.5625 C13.87339141 104.36295169 8.80312912 105.84649439 0.5 105.8125 C-1.38525391 105.82023437 -1.38525391 105.82023437 -3.30859375 105.828125 C-11.50901892 105.24786599 -16.7216272 102.69289313 -22.0625 96.5625 C-26.0622893 89.94215909 -27.1654465 83.21671762 -27.23950195 75.5480957 C-27.25233719 74.38280838 -27.26517242 73.21752106 -27.27839661 72.016922 C-27.28578354 70.76997055 -27.29317047 69.5230191 -27.30078125 68.23828125 C-27.308853 66.94109665 -27.31692474 65.64391205 -27.32524109 64.30741882 C-27.34021503 61.56472917 -27.3500775 58.82206487 -27.35766602 56.0793457 C-27.36870042 52.59399306 -27.40308702 49.10928406 -27.44283772 45.62415791 C-27.47552829 42.26639392 -27.47980086 38.90869188 -27.48828125 35.55078125 C-27.50578934 34.31395096 -27.52329742 33.07712067 -27.54133606 31.80281067 C-27.5191225 22.83522301 -25.93877395 15.46281858 -21.375 7.6875 C-14.62234544 1.48235797 -9.07587449 0.09026189 0 0 Z " fill="#040400" transform="translate(37.0625,198.4375)"/>
<path d="M0 0 C4.47479556 2.78247149 7.18221564 7.04228131 8.68359375 12.046875 C9.82038175 17.36279009 9.79858473 22.51762649 9.74609375 27.921875 C9.72546875 30.933125 9.70484375 33.944375 9.68359375 37.046875 C0.11359375 37.046875 -9.45640625 37.046875 -19.31640625 37.046875 C-19.21328125 40.40875 -19.11015625 43.770625 -19.00390625 47.234375 C-18.97901123 48.28520264 -18.95411621 49.33603027 -18.9284668 50.41870117 C-18.76813946 57.3005738 -18.76813946 57.3005738 -15.31640625 63.046875 C-13.04308826 63.64856946 -13.04308826 63.64856946 -10.62890625 63.359375 C-9.20578125 63.25625 -7.78265625 63.153125 -6.31640625 63.046875 C-5.65640625 57.766875 -4.99640625 52.486875 -4.31640625 47.046875 C0.30359375 47.046875 4.92359375 47.046875 9.68359375 47.046875 C10.24958034 55.67817057 8.69755696 63.16044876 3.30859375 70.109375 C-3.40013466 75.06105549 -11.3140338 74.80146425 -19.31640625 74.046875 C-24.23284658 72.51823389 -27.61921962 69.38163922 -30.31640625 65.046875 C-32.8967086 58.94975959 -33.77432637 53.38415623 -33.75 46.8046875 C-33.75524185 45.95566864 -33.7604837 45.10664978 -33.7658844 44.23190308 C-33.77226263 42.44872116 -33.77102256 40.66549694 -33.76245117 38.88232422 C-33.75394792 36.1850937 -33.78274948 33.48999059 -33.81445312 30.79296875 C-33.89791891 10.52108557 -33.89791891 10.52108557 -27.90429688 3.35961914 C-20.39806904 -3.40775944 -9.0529169 -3.99005901 0 0 Z " fill="#090801" transform="translate(221.31640625,229.953125)"/>
<path d="M0 0 C4.97808275 2.97636947 7.60538973 6.87562009 9.4375 12.3125 C9.7159729 15.22956848 9.7159729 15.22956848 9.75634766 18.47973633 C9.77621735 19.70062454 9.79608704 20.92151276 9.81655884 22.17939758 C9.82811005 23.48789169 9.83966125 24.7963858 9.8515625 26.14453125 C9.87028547 27.50503194 9.88985973 28.86552117 9.9102478 30.22599792 C9.96145602 33.79496479 10.00114187 37.36396926 10.03839111 40.93310547 C10.07850201 44.57984635 10.12956192 48.22643234 10.1796875 51.87304688 C10.27631269 59.0194236 10.3597473 66.16588939 10.4375 73.3125 C6.4775 73.3125 2.5175 73.3125 -1.5625 73.3125 C-2.2225 70.3425 -2.8825 67.3725 -3.5625 64.3125 C-4.14 65.240625 -4.7175 66.16875 -5.3125 67.125 C-8.06860134 71.02947689 -10.05722629 72.8107421 -14.5625 74.3125 C-19.14666865 74.68825153 -21.62183024 74.74665527 -25.8125 72.8125 C-30.37540082 68.66440834 -32.21261571 65.11811424 -32.98046875 58.9609375 C-33.28064419 51.38353593 -32.76428294 45.99568188 -27.5625 40.3125 C-27.11261719 39.79558594 -26.66273438 39.27867187 -26.19921875 38.74609375 C-21.30417939 33.90164911 -10.57906206 27.3125 -3.5625 27.3125 C-3.67693603 25.2285597 -3.80445547 23.14533507 -3.9375 21.0625 C-4.00710938 19.90234375 -4.07671875 18.7421875 -4.1484375 17.546875 C-4.52750458 14.58586043 -4.93119608 12.77705987 -6.5625 10.3125 C-9.36120027 8.91314987 -11.46748792 9.05984595 -14.5625 9.3125 C-16.88505834 10.99112629 -17.49049909 11.96348798 -18.07421875 14.79296875 C-18.13222656 15.68628906 -18.19023437 16.57960937 -18.25 17.5 C-18.353125 19.088125 -18.45625 20.67625 -18.5625 22.3125 C-23.1825 22.3125 -27.8025 22.3125 -32.5625 22.3125 C-33.03924858 15.75720708 -32.05732036 10.94722576 -28.5625 5.3125 C-21.53962457 -2.6146909 -9.53702351 -4.42790377 0 0 Z " fill="#030300" transform="translate(442.5625,229.6875)"/>
<path d="M0 0 C1.7634375 -0.01160156 1.7634375 -0.01160156 3.5625 -0.0234375 C8.76089128 0.57910331 11.97181307 2.37072439 15.6875 6 C20.91082436 12.83122345 21.42318096 20.63443894 21.1875 28.9375 C21.125625 32.051875 21.06375 35.16625 21 38.375 C11.43 38.375 1.86 38.375 -8 38.375 C-7.87625 41.9225 -7.7525 45.47 -7.625 49.125 C-7.59100098 50.23713867 -7.55700195 51.34927734 -7.52197266 52.49511719 C-7.4863623 53.37844727 -7.45075195 54.26177734 -7.4140625 55.171875 C-7.3826416 56.07260742 -7.3512207 56.97333984 -7.31884766 57.90136719 C-6.98399965 60.49913135 -6.3957016 62.16891103 -5 64.375 C-2.20129973 65.77435013 -0.09501208 65.62765405 3 65.375 C4.78099345 64.33085852 4.78099345 64.33085852 6 62.375 C6.58092992 59.18254002 6.58092992 59.18254002 6.6875 55.6875 C6.790625 53.604375 6.89375 51.52125 7 49.375 C11.62 49.375 16.24 49.375 21 49.375 C21.38903008 57.414955 20.78150091 64.74359603 15.75 71.3125 C8.28333339 76.91249996 1.22231076 77.49188885 -8 76.375 C-12.68719495 74.75500175 -15.76262943 72.19304407 -18.375 68 C-21.28589853 61.50645712 -22.31540147 55.78337227 -22.3359375 48.765625 C-22.3425943 47.95816833 -22.3492511 47.15071167 -22.35610962 46.31878662 C-22.36618483 44.61782083 -22.37092824 42.91681591 -22.37060547 41.21582031 C-22.37496471 38.64580299 -22.4112985 36.07752525 -22.44921875 33.5078125 C-22.5197752 23.21131604 -22.29852968 13.80472171 -15.625 5.375 C-10.5078875 1.47624762 -6.45431341 -0.04246259 0 0 Z " fill="#9E2BAC" transform="translate(486,227.625)"/>
<path d="M0 0 C4.56199772 2.91191344 7.15486941 6.01159383 9.25 11 C10.20034645 16.3564982 10.0597202 21.43620113 9.9375 26.875 C5.6475 26.875 1.3575 26.875 -3.0625 26.875 C-3.22526042 23.61979167 -3.38802083 20.36458333 -3.55078125 17.109375 C-4.08569945 13.72836528 -4.61136816 12.22900074 -7.0625 9.875 C-10.5625 9.20833333 -10.5625 9.20833333 -14.0625 9.875 C-16.72917815 12.62848627 -17.43902371 14.59235674 -17.45068359 18.38061523 C-17.46014008 19.26510849 -17.46959656 20.14960175 -17.4793396 21.06089783 C-17.47023056 22.48288231 -17.47023056 22.48288231 -17.4609375 23.93359375 C-17.46380768 24.91489761 -17.46667786 25.89620148 -17.46963501 26.90724182 C-17.47167488 28.9808917 -17.46615043 31.05456085 -17.45361328 33.12817383 C-17.43757602 36.29747728 -17.45345605 39.46550213 -17.47265625 42.63476562 C-17.47067347 44.65104448 -17.46682907 46.66732253 -17.4609375 48.68359375 C-17.46701019 49.62955917 -17.47308289 50.5755246 -17.4793396 51.55015564 C-17.42753812 56.41257102 -17.36957572 60.00101128 -14.0625 63.875 C-11.78918201 64.47669446 -11.78918201 64.47669446 -9.375 64.1875 C-8.16263672 64.11982422 -8.16263672 64.11982422 -6.92578125 64.05078125 C-6.31089844 63.99277344 -5.69601562 63.93476563 -5.0625 63.875 C-3.87554447 60.31413342 -3.71154582 56.90168976 -3.5 53.1875 C-3.45681641 52.48560547 -3.41363281 51.78371094 -3.36914062 51.06054688 C-3.2633264 49.33224794 -3.16243419 47.6036489 -3.0625 45.875 C1.2275 45.875 5.5175 45.875 9.9375 45.875 C10.27636621 54.68552142 9.77618573 62.11006325 5.1875 69.8125 C-0.86977809 75.36500492 -6.73383425 75.2208873 -14.66015625 75.2734375 C-20.86396808 74.54692911 -25.18705586 71.69311974 -29.0625 66.875 C-31.87972381 60.69092385 -32.50910395 54.80914381 -32.4609375 48.08984375 C-32.46380768 47.18931778 -32.46667786 46.28879181 -32.46963501 45.36097717 C-32.47166266 43.47103236 -32.4662245 41.58106593 -32.45361328 39.69116211 C-32.4375219 36.8164131 -32.45351608 33.94306573 -32.47265625 31.06835938 C-32.47067396 29.2213511 -32.46683056 27.37434369 -32.4609375 25.52734375 C-32.46701019 24.67816879 -32.47308289 23.82899384 -32.4793396 22.9540863 C-32.39729208 15.91569355 -31.00092615 9.43787062 -26.1875 4 C-25.71570313 3.44570312 -25.24390625 2.89140625 -24.7578125 2.3203125 C-18.5926736 -2.9356815 -7.31421552 -2.72870292 0 0 Z " fill="#080700" transform="translate(274.0625,229.125)"/>
<path d="M0 0 C4.62 0 9.24 0 14 0 C19.38297872 35.4893617 19.38297872 35.4893617 22 53 C22.33 53 22.66 53 23 53 C25.73836471 35.34371112 28.39960898 17.67712618 31 0 C35.62 0 40.24 0 45 0 C44.27536024 6.54753359 43.10411123 12.95098256 41.8203125 19.41015625 C41.60688202 20.49525986 41.39345154 21.58036346 41.17355347 22.698349 C40.49328039 26.15358008 39.80918041 29.60804074 39.125 33.0625 C38.67292915 35.35607094 38.22110399 37.64969031 37.76953125 39.94335938 C35.53192752 51.29936723 33.27716789 62.65186199 31 74 C25.39 74 19.78 74 14 74 C13.74347656 72.70578125 13.48695313 71.4115625 13.22265625 70.078125 C12.83615214 68.13537395 12.44940857 66.19267054 12.0625 64.25 C11.85085205 63.18555664 11.6392041 62.12111328 11.42114258 61.02441406 C9.86807904 53.24895261 8.27515358 45.48239522 6.6640625 37.71875 C6.04540344 34.72819913 5.4270775 31.73757954 4.80880737 28.74694824 C4.39499821 26.75089171 3.97941291 24.75520256 3.56204224 22.7598877 C2.96793243 19.91894706 2.37990683 17.07680466 1.79296875 14.234375 C1.52143478 12.94823303 1.52143478 12.94823303 1.24441528 11.6361084 C1.08021088 10.83547974 0.91600647 10.03485107 0.74682617 9.20996094 C0.60202316 8.51481384 0.45722015 7.81966675 0.30802917 7.10345459 C0 5 0 5 0 0 Z " fill="#050500" transform="translate(360,229)"/>
<path d="M0 0 C4.29 0 8.58 0 13 0 C13 6.93 13 13.86 13 21 C16.96 21 20.92 21 25 21 C25 23.97 25 26.94 25 30 C21.04 30 17.08 30 13 30 C13.11799958 37.36909296 13.24222971 44.73804404 13.37231445 52.10693359 C13.41570903 54.61536784 13.4573807 57.12383249 13.49731445 59.63232422 C13.55490757 63.23153868 13.61863343 66.83059942 13.68359375 70.4296875 C13.70030624 71.55680145 13.71701874 72.68391541 13.73423767 73.84518433 C13.75418289 74.88611237 13.77412811 75.92704041 13.79467773 76.99951172 C13.81799416 78.37851151 13.81799416 78.37851151 13.84178162 79.78536987 C13.8610678 82.04075154 13.8610678 82.04075154 15 84 C17.35599235 84.46751788 17.35599235 84.46751788 20.0625 84.625 C21.691875 84.74875 23.32125 84.8725 25 85 C25 88.63 25 92.26 25 96 C22.45716766 96.10871967 19.91904912 96.18762401 17.375 96.25 C16.66214844 96.28351563 15.94929688 96.31703125 15.21484375 96.3515625 C10.02685569 96.44675494 6.98211065 95.62010059 3 92 C-0.68851403 85.60697635 -0.38906269 79.5272017 -0.29296875 72.28515625 C-0.28872391 71.07427841 -0.28447906 69.86340057 -0.28010559 68.61582947 C-0.26336989 64.76448943 -0.22572572 60.91368077 -0.1875 57.0625 C-0.17244662 54.44466904 -0.15875936 51.82682984 -0.14648438 49.20898438 C-0.11348299 42.80580958 -0.06333386 36.40294277 0 30 C-2.64 30 -5.28 30 -8 30 C-8 27.03 -8 24.06 -8 21 C-5.36 21 -2.72 21 0 21 C0 14.07 0 7.14 0 0 Z " fill="#010100" transform="translate(300,208)"/>
<path d="M0 0 C4.62 0 9.24 0 14 0 C14 34.32 14 68.64 14 104 C9.38 104 4.76 104 0 104 C0 69.68 0 35.36 0 0 Z " fill="#060500" transform="translate(161,199)"/>
<path d="M0 0 C4.62 0 9.24 0 14 0 C14 34.32 14 68.64 14 104 C9.38 104 4.76 104 0 104 C0 69.68 0 35.36 0 0 Z " fill="#060600" transform="translate(132,199)"/>
<path d="M0 0 C4.62 0 9.24 0 14 0 C14 24.42 14 48.84 14 74 C9.38 74 4.76 74 0 74 C0 49.58 0 25.16 0 0 Z " fill="#050500" transform="translate(336,229)"/>
<path d="M0 0 C3.5 0.625 3.5 0.625 5.68774414 2.52929688 C8.2768738 6.95205912 8.05612726 10.74284839 7.99609375 15.78125 C7.99754898 16.76113892 7.99900421 17.74102783 8.00050354 18.75061035 C7.99884666 20.8183083 7.98730913 22.88601885 7.96655273 24.95361328 C7.93759948 28.114141 7.94594842 31.27299042 7.95898438 34.43359375 C7.95274654 36.44532063 7.94435525 38.45704223 7.93359375 40.46875 C7.93652939 41.41157837 7.93946503 42.35440674 7.94248962 43.32580566 C7.86511699 48.72069607 7.51204493 52.61295507 3.5 56.625 C0.1875 57 0.1875 57 -3.5 56.625 C-6.01234043 54.48113616 -7.31445566 52.72482082 -7.87060547 49.42822266 C-8.03043728 46.6940898 -8.05423676 43.98874045 -8.03125 41.25 C-8.0350769 40.24791504 -8.03890381 39.24583008 -8.04284668 38.21337891 C-8.04556382 36.09862257 -8.03821657 33.98383251 -8.02148438 31.86914062 C-8.00007255 28.63595506 -8.02129343 25.40499162 -8.046875 22.171875 C-8.04423169 20.11457844 -8.03910665 18.05728326 -8.03125 16 C-8.03934692 15.03529785 -8.04744385 14.0705957 -8.05578613 13.07666016 C-7.99614309 8.79836724 -7.8760091 6.26935574 -5.68554688 2.515625 C-3.5 0.625 -3.5 0.625 0 0 Z " fill="#F5E41B" transform="translate(96.5,237.375)"/>
<path d="M0 0 C0.17479953 3.56187657 0.28101143 7.12264773 0.375 10.6875 C0.45041016 12.19860352 0.45041016 12.19860352 0.52734375 13.74023438 C0.67169875 21.03016197 0.67169875 21.03016197 -1.25024414 23.80517578 C-3.81677281 26.04008999 -5.83053473 26.97341721 -9.1875 27.5 C-12.26977953 26.95203919 -13.22182475 26.52688062 -15 24 C-16.58155775 19.25532674 -16.74953422 15.56424533 -14.5625 11 C-11.57480715 7.50221325 -5.07699757 0 0 0 Z " fill="#EDDD1A" transform="translate(439,265)"/>
<path d="M0 0 C2.84780619 2.23206431 3.84997666 3.54992999 5 7 C5.13590447 11.66967754 5.04286807 16.32737985 5 21 C-0.28 21 -5.56 21 -11 21 C-11.061875 18.628125 -11.12375 16.25625 -11.1875 13.8125 C-11.21481201 13.07491455 -11.24212402 12.3373291 -11.27026367 11.57739258 C-11.32558339 7.172634 -10.70828623 4.4820823 -8 1 C-5.15916359 -0.42041821 -3.14522722 -0.31452272 0 0 Z " fill="#F3DD23" transform="translate(489,238)"/>
<path d="M0 0 C3.5 0.5625 3.5 0.5625 5.703125 2.05078125 C8.33760123 5.73332084 7.93995816 8.90693198 7.75 13.3125 C7.73195312 14.10527344 7.71390625 14.89804688 7.6953125 15.71484375 C7.64833082 17.66458348 7.57659044 19.61369878 7.5 21.5625 C2.55 21.5625 -2.4 21.5625 -7.5 21.5625 C-7.60845031 18.99885517 -7.68749744 16.43983721 -7.75 13.875 C-7.78351563 13.15376953 -7.81703125 12.43253906 -7.8515625 11.68945312 C-7.92190059 7.83844246 -7.74190374 5.96427056 -5.703125 2.578125 C-3.5 0.5625 -3.5 0.5625 0 0 Z " fill="#F1E01B" transform="translate(209.5,237.4375)"/>
<path d="M0 0 C4.62 0 9.24 0 14 0 C14 4.62 14 9.24 14 14 C9.38 14 4.76 14 0 14 C0 9.38 0 4.76 0 0 Z " fill="#050500" transform="translate(336,204)"/>
</svg>
